<?xml version="1.0" standalone="no"?>
<!DOCTYPE svg PUBLIC "-//W3C//DTD SVG 20010904//EN"
 "http://www.w3.org/TR/2001/REC-SVG-20010904/DTD/svg10.dtd">
<svg version="1.0" xmlns="http://www.w3.org/2000/svg"
 width="512.000000pt" height="512.000000pt" viewBox="0 0 512.000000 512.000000"
 preserveAspectRatio="xMidYMid meet">

<g transform="translate(0.000000,512.000000) scale(0.100000,-0.100000)"
fill="#000000" stroke="none">
<path d="M2416 4930 c-570 -72 -1016 -483 -1130 -1041 -98 -479 100 -1188 541
-1944 l70 -120 -553 -5 c-474 -4 -555 -7 -568 -20 -16 -16 -596 -1531 -596
-1556 0 -8 11 -26 25 -39 l24 -25 2331 0 2331 0 24 25 c14 13 25 31 25 39 0
25 -580 1540 -596 1556 -13 13 -94 16 -568 20 l-554 5 85 145 c104 178 264
503 331 670 195 487 261 922 192 1260 -104 508 -502 906 -1009 1010 -115 23
-305 33 -405 20z m269 -140 c268 -31 502 -144 691 -334 349 -350 426 -791 249
-1421 -114 -404 -359 -897 -698 -1405 -117 -176 -355 -500 -367 -500 -11 0
-245 316 -352 475 -639 952 -912 1778 -768 2328 87 330 341 629 649 763 199
86 393 117 596 94z m-1082 -3642 c224 -292 407 -532 405 -533 -2 -1 -189 -68
-416 -149 l-413 -146 -409 0 c-241 0 -410 4 -410 9 0 5 106 288 236 628 130
340 245 642 256 671 l19 52 162 0 162 -1 408 -531z m477 395 c94 -140 350
-486 412 -557 48 -55 88 -55 136 0 64 73 319 418 412 557 l92 137 558 0 559 0
19 -52 c11 -29 31 -83 45 -120 l26 -67 -22 -7 c-12 -3 -497 -175 -1077 -382
-580 -206 -1064 -377 -1075 -379 -16 -3 -81 77 -332 404 -172 225 -347 452
-388 506 l-76 97 310 0 309 0 92 -137z m2496 -722 c101 -265 184 -487 184
-492 0 -6 -124 -8 -312 -7 l-313 3 -267 345 c-147 190 -265 349 -264 355 3 10
765 285 779 282 5 -2 91 -220 193 -486z m-964 -46 c84 -110 197 -257 251 -328
l98 -127 -1173 1 c-747 0 -1166 4 -1153 10 35 16 1810 647 1817 646 3 -1 75
-92 160 -202z"/>
<path d="M2412 4210 c-106 -28 -187 -75 -268 -155 -281 -280 -209 -753 142
-937 230 -121 505 -79 688 106 73 73 119 147 152 246 26 77 26 263 0 340 -50
147 -161 283 -283 348 -131 69 -291 89 -431 52z m247 -131 c286 -65 434 -388
300 -651 -28 -54 -113 -143 -167 -175 -300 -176 -682 41 -682 387 0 203 150
393 347 439 52 12 149 13 202 0z"/>
</g>
</svg>
