<?xml version="1.0" standalone="no"?>
<!DOCTYPE svg PUBLIC "-//W3C//DTD SVG 20010904//EN"
 "http://www.w3.org/TR/2001/REC-SVG-20010904/DTD/svg10.dtd">
<svg version="1.0" xmlns="http://www.w3.org/2000/svg"
 width="640.000000pt" height="640.000000pt" viewBox="0 0 640.000000 640.000000"
 preserveAspectRatio="xMidYMid meet">

<g transform="translate(0.000000,640.000000) scale(0.100000,-0.100000)"
fill="#000000" stroke="none">
<path d="M5374 4466 c-14 -36 0 -51 49 -54 l47 -3 0 -130 0 -129 35 0 35 0 0
129 0 130 53 3 c50 3 52 4 52 33 l0 30 -133 3 c-109 2 -133 0 -138 -12z"/>
<path d="M5667 4474 c-4 -4 -7 -79 -7 -166 l0 -158 35 0 35 0 1 98 1 97 30
-97 c31 -97 31 -98 63 -98 31 0 32 1 61 93 l29 92 3 -93 3 -93 32 3 32 3 0
160 0 160 -46 3 -45 3 -29 -98 c-15 -54 -31 -104 -35 -111 -4 -8 -22 33 -41
95 l-35 108 -40 3 c-22 2 -43 0 -47 -4z"/>
<path d="M1300 4218 c-63 -32 -97 -100 -82 -160 6 -23 10 -43 9 -44 -1 -1 -38
3 -81 8 -130 14 -240 -16 -278 -76 -56 -89 42 -269 263 -481 52 -50 110 -104
131 -120 l36 -30 -126 -292 -127 -293 -62 0 c-60 0 -63 -1 -63 -25 l0 -25 148
0 147 0 35 85 35 85 165 0 166 0 35 -82 35 -83 565 -3 565 -2 35 82 35 83 165
3 166 2 34 -82 34 -83 871 -3 870 -2 35 82 35 83 165 3 166 2 34 -82 34 -83
240 0 240 0 3 23 3 22 -158 0 -158 0 -160 375 -159 376 -86 -3 -85 -3 -160
-373 -159 -373 -36 3 c-35 3 -35 3 -36 53 l-1 50 -201 3 -202 2 0 80 0 80 175
0 175 0 0 80 0 80 -175 0 -175 0 0 80 0 80 195 0 195 0 0 80 0 80 -278 0 -279
0 -6 -157 c-4 -87 -7 -256 -7 -375 l0 -218 -60 0 -60 0 0 55 0 55 -170 0 -170
0 0 320 0 320 -85 0 -85 0 -2 -372 -3 -373 -55 -3 -55 -2 -110 255 -109 256
34 27 c66 50 131 116 177 176 45 60 133 227 133 252 0 8 -41 -7 -109 -41 -401
-202 -798 -207 -1184 -15 -175 87 -257 147 -631 464 -143 121 -266 161 -356
114z m4050 -1199 c0 -5 -40 -9 -90 -9 -49 0 -90 2 -90 6 0 6 79 194 87 208 5
8 93 -186 93 -205z m-3841 83 l39 -92 -94 0 c-52 0 -94 4 -94 9 0 5 19 53 42
106 48 114 49 114 107 -23z m1612 -23 l27 -64 -90 -3 c-50 -1 -93 0 -96 3 -3
3 4 25 16 50 20 42 81 89 106 81 5 -1 22 -31 37 -67z m-1131 -80 c36 -7 67
-14 69 -16 2 -1 -28 -42 -68 -90 -60 -74 -71 -93 -71 -125 0 -36 -2 -38 -32
-38 l-33 0 -74 173 c-41 94 -76 175 -77 178 -2 3 47 -11 109 -32 62 -21 141
-43 177 -50z m719 -124 c-63 -145 -63 -145 -96 -145 l-33 0 0 55 0 55 -206 0
-205 0 32 45 c61 85 52 81 205 88 83 4 183 16 249 30 61 12 112 22 114 20 2
-1 -25 -68 -60 -148z"/>
<path d="M3653 4105 c-38 -16 -63 -60 -63 -111 0 -28 8 -44 34 -70 29 -29 41
-34 80 -34 122 0 160 163 50 215 -39 18 -59 18 -101 0z"/>
<path d="M3683 2435 c-21 -15 -46 -77 -58 -146 -5 -27 -15 -40 -41 -54 -18
-10 -41 -29 -49 -41 -20 -31 -27 -30 -43 5 -27 60 -103 63 -149 6 l-26 -33
-21 31 c-30 44 -66 55 -110 34 -30 -14 -36 -14 -46 -1 -7 8 -30 14 -51 14 -42
0 -44 4 -33 59 l7 31 77 0 c60 0 79 3 84 15 16 42 -19 55 -145 55 -164 0 -233
-34 -227 -112 3 -48 27 -70 56 -52 12 8 16 21 14 43 -3 26 1 33 24 41 34 13
37 10 29 -37 -4 -26 -13 -42 -28 -48 -30 -14 -35 -55 -8 -62 25 -6 28 -39 5
-71 -19 -28 -51 -28 -80 -1 -28 26 -54 19 -54 -16 0 -34 51 -65 108 -65 57 0
106 45 117 108 7 42 7 42 49 42 l42 0 0 -49 c-1 -39 4 -55 23 -75 44 -47 126
-28 155 35 5 12 7 12 12 0 16 -36 54 -61 90 -61 29 0 44 7 68 33 l30 33 16
-30 c11 -24 23 -32 48 -34 18 -2 40 2 48 9 11 9 18 9 26 1 7 -7 23 -12 36 -12
24 0 24 2 18 51 -6 43 -3 59 22 112 55 116 68 209 34 240 -23 21 -41 21 -69 2z
m27 -115 c-12 -66 -25 -82 -15 -20 8 56 16 83 21 77 2 -2 0 -28 -6 -57z m-478
-187 c12 -14 4 -43 -11 -43 -21 0 -31 38 -19 67 10 25 12 26 16 8 2 -11 9 -26
14 -32z m190 -35 c-17 -17 -32 1 -32 36 0 47 12 52 28 11 10 -25 11 -40 4 -47z
m194 16 c-8 -31 -36 -32 -36 -1 0 12 8 34 18 47 l17 25 3 -24 c2 -12 1 -34 -2
-47z"/>
<path d="M1415 2396 c-72 -32 -115 -110 -115 -208 0 -110 54 -164 156 -156
101 9 167 92 168 213 0 71 -21 117 -67 145 -37 23 -98 25 -142 6z m111 -77
c39 -43 15 -182 -35 -209 -34 -18 -78 -12 -95 12 -18 26 -21 103 -5 145 26 70
95 96 135 52z"/>
<path d="M3877 2392 c-36 -25 -56 -52 -57 -79 0 -36 20 -37 56 -2 18 18 37 30
40 26 4 -3 -1 -61 -11 -129 -21 -155 -20 -173 19 -173 33 0 35 5 55 115 15 82
53 163 86 180 45 24 50 4 26 -113 -29 -147 -13 -187 74 -187 61 0 135 89 89
107 -8 3 -25 -4 -38 -16 -24 -22 -51 -27 -61 -11 -3 5 3 53 14 105 27 121 26
141 -4 170 -37 38 -85 34 -135 -11 -39 -35 -40 -36 -40 -12 0 13 -5 29 -12 36
-18 18 -69 14 -101 -6z"/>
<path d="M4430 2399 c-66 -26 -95 -91 -66 -147 12 -22 35 -40 86 -63 78 -36
92 -55 60 -81 -42 -34 -110 -21 -110 21 0 50 -49 70 -71 30 -18 -35 -2 -87 34
-109 40 -25 135 -27 182 -5 50 25 72 80 50 131 -12 28 -27 41 -78 64 -74 33
-96 54 -81 78 15 24 57 34 89 22 21 -8 26 -15 22 -32 -8 -28 9 -48 38 -48 34
0 48 57 25 101 -23 43 -118 63 -180 38z"/>
<path d="M2472 2328 c-27 -27 -6 -68 34 -68 28 0 46 23 42 52 -2 17 -10 24
-33 26 -17 2 -36 -3 -43 -10z"/>
<path d="M4862 2328 c-27 -27 -6 -68 34 -68 28 0 46 23 42 52 -2 17 -10 24
-33 26 -17 2 -36 -3 -43 -10z"/>
<path d="M1667 2238 c-23 -17 -41 -123 -30 -169 7 -26 15 -35 35 -37 23 -3 28
2 43 50 18 56 35 83 35 57 0 -21 32 -49 56 -49 11 0 24 -10 29 -22 6 -13 20
-28 32 -34 l23 -11 -26 -24 c-57 -53 -72 -127 -30 -154 55 -36 113 28 140 157
4 15 18 35 31 44 24 15 27 15 44 0 20 -18 76 -22 86 -6 4 7 11 8 18 1 7 -5 40
-9 75 -9 59 0 64 2 74 27 5 14 17 40 24 56 l15 30 -6 -34 c-7 -48 16 -81 58
-81 18 0 38 5 45 12 8 8 15 8 26 -2 10 -8 28 -10 48 -6 38 8 48 8 108 0 37 -5
50 -2 73 16 27 22 37 63 16 75 -6 4 -21 -3 -34 -15 -13 -12 -31 -20 -42 -18
-24 4 -29 56 -9 83 15 19 15 19 16 -8 0 -23 4 -28 21 -25 48 7 50 79 4 100
-50 23 -125 -38 -125 -103 0 -15 -7 -33 -16 -40 -16 -13 -16 -9 -10 41 4 30 8
63 9 74 1 10 -6 23 -16 30 -26 16 -54 -21 -63 -82 -3 -26 -11 -53 -16 -59 -18
-22 -26 -4 -17 34 15 64 11 101 -10 108 -20 6 -71 -13 -71 -27 0 -4 -5 -8 -10
-8 -6 0 -9 5 -8 11 2 6 -5 16 -14 22 -27 18 -56 -18 -64 -78 -7 -51 -20 -79
-34 -70 -4 2 -4 24 1 47 13 69 11 76 -26 94 -30 14 -40 14 -65 4 -33 -14 -80
-64 -80 -85 0 -7 -9 -23 -21 -36 -13 -15 -19 -18 -16 -8 3 9 8 37 12 62 7 44
6 45 -28 62 -31 15 -38 15 -71 1 -20 -8 -44 -29 -54 -46 -22 -38 -36 -39 -29
0 4 19 1 34 -9 45 -20 20 -25 19 -67 -9 -25 -17 -34 -20 -30 -9 3 8 0 19 -8
24 -18 12 -22 11 -42 -3z m268 -80 c-12 -59 -16 -68 -32 -68 -20 0 -11 55 14
82 23 25 26 23 18 -14z m198 0 c-8 -42 -21 -68 -34 -68 -14 0 -3 46 17 78 20
30 25 28 17 -10z m-247 -240 c-19 -26 -22 -7 -4 25 7 13 13 17 15 10 3 -7 -3
-23 -11 -35z"/>
<path d="M4648 2239 c-13 -7 -18 -23 -18 -60 0 -33 -8 -66 -24 -97 -61 -120
-69 -224 -20 -242 51 -20 83 20 104 128 13 66 12 65 83 62 21 -1 45 4 53 10
11 10 17 10 29 0 9 -8 27 -10 47 -6 18 4 41 6 51 6 9 -1 42 -1 72 -1 84 0 105
0 166 -2 44 -2 62 2 78 17 12 11 21 14 21 8 0 -20 31 -42 60 -42 34 0 70 40
70 77 0 14 -9 38 -21 54 -16 23 -20 38 -15 64 7 34 6 35 -23 35 -27 0 -34 -7
-60 -59 -33 -64 -71 -101 -105 -101 -19 1 -18 2 6 16 34 18 48 43 48 83 0 65
-85 79 -133 22 l-24 -28 -10 28 c-29 77 -153 19 -153 -72 0 -15 -7 -32 -15
-39 -13 -11 -15 -8 -15 16 0 16 5 47 10 69 11 47 -5 71 -38 61 -19 -7 -42 -68
-42 -115 0 -11 -9 -25 -20 -31 -18 -10 -19 -9 -10 15 16 43 11 82 -14 112 -22
26 -27 27 -55 16 -18 -6 -33 -7 -37 -2 -7 12 -24 11 -46 -2z m377 -69 c-8 -26
20 -38 47 -21 18 11 19 10 13 -11 -12 -37 -26 -49 -54 -46 -20 2 -27 9 -29 30
-3 25 12 68 24 68 3 0 2 -9 -1 -20z m151 -18 c-14 -14 -16 -14 -16 -1 0 20 23
44 29 28 2 -6 -4 -18 -13 -27z m-440 -4 c-4 -18 -13 -39 -21 -48 -13 -13 -15
-10 -15 21 0 34 14 59 33 59 5 0 7 -15 3 -32z m604 -38 c0 -5 -4 -10 -10 -10
-5 0 -10 5 -10 10 0 6 5 10 10 10 6 0 10 -4 10 -10z m-723 -187 c-3 -10 -5 -4
-5 12 0 17 2 24 5 18 2 -7 2 -21 0 -30z"/>
</g>
</svg>
